<svg xmlns="http://www.w3.org/2000/svg" width="311.81" height="56.69"><path fill-rule="evenodd" clip-rule="evenodd" fill="#946F2A" d="M11.623 11.192h3.509v17.655h288.964v2.729H11.623z"/><path fill-rule="evenodd" clip-rule="evenodd" fill="#010101" d="M4 38.135V4.599h28.113v2.906H7.368v27.758h24.745v2.872z"/><path fill-rule="evenodd" clip-rule="evenodd" fill="#010101" d="M19.386 25.514V11.192h12.727v2.482h-9.43v9.501h9.43v2.339z"/><path fill="#010101" d="M288.072 12.54v4.787h2.057c.389 0 .742-.071 1.063-.178.318-.142.604-.284.85-.532.213-.213.428-.461.533-.78.143-.319.213-.674.213-1.064 0-.709-.213-1.241-.674-1.63-.461-.426-1.1-.603-1.949-.603h-2.093zm9.074 12.727h-2.906l-2.375-3.935a5.133 5.133 0 0 0-.639-.922c-.213-.285-.391-.497-.604-.639a1.892 1.892 0 0 0-.707-.354 3.064 3.064 0 0 0-.852-.142h-.992v5.992h-2.447V10.555h4.893c.709 0 1.348.071 1.951.248.566.142 1.098.39 1.523.745.461.319.779.744 1.027 1.241.25.497.391 1.064.391 1.737 0 .531-.105.993-.248 1.418s-.391.815-.674 1.17c-.283.318-.637.638-1.029.851a5.901 5.901 0 0 1-1.381.566v.037c.283.142.496.318.709.496.213.177.389.39.566.566.178.179.354.391.533.638.176.249.389.533.602.853l2.659 4.146zm-15.386 0h-8.4V10.555h8.047v2.056h-5.564v4.183h5.141v2.057h-5.141v4.36h5.918v2.056zM269.992 12.61h-4.291v12.657h-2.482V12.61h-4.289v-2.056h11.063v2.056zm-14.5 12.657h-2.693l-7.127-10.813c-.178-.284-.318-.567-.461-.851h-.035c.035.319.07.993.07 2.021v9.644h-2.41V10.555h2.906l6.877 10.565c.285.425.498.708.568.885h.035c-.07-.39-.105-1.063-.105-1.984v-9.466h2.375v14.712zm-16.486 0h-8.4V10.555h8.047v2.056h-5.564v4.183h5.141v2.057h-5.141v4.36h5.918v2.056zm-12.442-.639c-1.1.602-2.518.886-4.184.886-2.162 0-3.9-.673-5.211-2.021-1.277-1.347-1.951-3.119-1.951-5.317 0-2.339.746-4.254 2.199-5.708 1.488-1.454 3.332-2.163 5.564-2.163 1.453 0 2.66.213 3.582.603v2.411a6.564 6.564 0 0 0-3.299-.886c-1.629 0-2.941.532-3.934 1.56-1.027.992-1.525 2.375-1.525 4.077 0 1.595.461 2.907 1.418 3.864.922.957 2.164 1.454 3.688 1.454 1.418 0 2.623-.355 3.652-.993v2.233zm-19.605.639h-8.26V10.555h2.482V23.21h5.777v2.057zm-16.236-5.744l-2.092-5.85c-.035-.212-.107-.531-.178-.921h-.035c-.07.39-.143.673-.213.921l-2.057 5.85h4.575zm4.715 5.744h-2.73l-1.348-3.759h-5.848l-1.313 3.759h-2.693l5.6-14.712h2.766l5.566 14.712zm-16.698-1.028c-1.561.85-3.262 1.275-5.176 1.275-2.199 0-4.006-.673-5.354-2.056-1.383-1.347-2.057-3.121-2.057-5.353 0-2.269.744-4.148 2.234-5.601 1.488-1.454 3.402-2.198 5.707-2.198 1.666 0 3.049.249 4.184.709v2.517c-1.135-.745-2.518-1.135-4.113-1.135-1.559 0-2.871.532-3.9 1.56-1.027 1.028-1.523 2.375-1.523 4.006 0 1.701.426 3.013 1.313 3.97.887.993 2.057 1.454 3.58 1.454 1.029 0 1.914-.177 2.658-.568V19.31h-3.154v-2.056h5.602v6.985zm-15.492 1.028h-8.367V10.555h8.048v2.056h-5.568v4.183h5.105v2.057h-5.105v4.36h5.887v2.056zm-11.735 0h-8.26V10.555h2.481V23.21h5.779v2.057zm-19.037 0h-2.694l-7.125-10.813c-.178-.284-.355-.567-.461-.851h-.071c.071.319.106.993.106 2.021v9.644h-2.411V10.555h2.872l6.913 10.565c.284.425.461.708.567.885h.036c-.071-.39-.106-1.063-.106-1.984v-9.466h2.375v14.712zm-20.633-5.744l-2.056-5.85a7.15 7.15 0 0 1-.212-.921h-.035c-.071.39-.142.673-.213.921l-2.056 5.85h4.572zm4.715 5.744h-2.694l-1.347-3.759h-5.885l-1.276 3.759h-2.694l5.566-14.712h2.801l5.529 14.712zM85.751 12.575v5.353h1.595c1.063 0 1.879-.248 2.446-.709.532-.497.815-1.17.815-2.056 0-1.737-1.028-2.588-3.049-2.588h-1.807zm0 7.338v5.354H83.27V10.555h4.538c1.737 0 3.049.389 4.006 1.169.922.78 1.418 1.914 1.418 3.332 0 1.419-.496 2.587-1.489 3.511-.993.921-2.305 1.346-4.006 1.346h-1.986zm-15.953 4.751v-2.518c.213.213.497.39.815.568.319.176.638.317.992.425.355.106.709.177 1.064.248s.673.106.993.106c1.028 0 1.808-.177 2.304-.532.532-.317.78-.815.78-1.488 0-.354-.106-.639-.248-.887-.177-.283-.425-.496-.709-.708a6.312 6.312 0 0 0-1.099-.604c-.39-.212-.851-.425-1.312-.638-.532-.249-.992-.532-1.418-.78a7.656 7.656 0 0 1-1.135-.922 3.6 3.6 0 0 1-.78-1.134c-.177-.39-.283-.887-.283-1.454 0-.673.177-1.276.496-1.808.319-.496.71-.922 1.241-1.241a4.933 4.933 0 0 1 1.772-.744c.638-.178 1.312-.249 2.021-.249 1.56 0 2.694.177 3.403.532v2.411c-.851-.603-1.95-.922-3.261-.922-.354 0-.745.035-1.099.106-.355.071-.709.177-.993.354-.283.142-.496.355-.709.603-.177.248-.248.532-.248.886a1.724 1.724 0 0 0 .815 1.49c.248.212.603.425.957.602.39.178.851.39 1.347.603.532.284 1.028.531 1.489.851.46.284.851.604 1.205.958.354.354.638.744.851 1.205a3.8 3.8 0 0 1 .283 1.453c0 .781-.142 1.383-.461 1.915a3.673 3.673 0 0 1-1.205 1.241 5.87 5.87 0 0 1-1.809.708c-.673.142-1.382.213-2.127.213-.249 0-.567-.035-.922-.071-.354-.034-.745-.071-1.134-.142a9.18 9.18 0 0 1-1.064-.283c-.352-.105-.599-.211-.812-.353zm-7.303-5.141l-2.056-5.85a7.294 7.294 0 0 1-.213-.921h-.036c-.071.39-.142.673-.212.921l-2.056 5.85h4.573zm4.715 5.744h-2.694l-1.347-3.759h-5.885l-1.276 3.759h-2.729l5.601-14.712h2.8l5.53 14.712zm-16.272-.639c-1.134.602-2.552.886-4.218.886-2.163 0-3.9-.673-5.211-2.021-1.276-1.347-1.95-3.119-1.95-5.317 0-2.339.745-4.254 2.198-5.708 1.489-1.454 3.332-2.163 5.566-2.163 1.454 0 2.659.213 3.616.603v2.411c-1.028-.567-2.127-.886-3.333-.886-1.63 0-2.942.532-3.935 1.56-.992.992-1.524 2.375-1.524 4.077 0 1.595.496 2.907 1.418 3.864.958.957 2.162 1.454 3.687 1.454 1.418 0 2.659-.355 3.687-.993v2.233zm46.016-14.073h2.482v14.712h-2.482V10.555z"/><path fill="#946F2A" d="M81.75 49.911V38.696h1.385v9.91h5.1v1.305H81.75zm7.016 0l3.979-11.215h1.503l4.245 11.215h-1.562l-1.208-3.412H91.33l-1.12 3.412h-1.444zm2.977-4.598h3.537l-1.061-3.115c-.324-.95-.59-1.722-.766-2.346-.118.742-.325 1.455-.56 2.169l-1.15 3.292zm9.108 4.598L98.11 38.696h1.415l1.562 7.358c.177.771.324 1.542.443 2.284.294-1.188.441-1.868.501-2.077l1.945-7.565h1.68l1.475 5.667c.383 1.425.648 2.729.825 3.976.148-.712.325-1.513.531-2.433l1.621-7.21h1.385l-2.859 11.215h-1.327l-2.182-8.546c-.176-.711-.294-1.156-.353-1.304-.119.505-.207.948-.295 1.304l-2.182 8.546h-1.444zm21.755-1.335c-.413.505-.884.892-1.386 1.129a3.744 3.744 0 0 1-1.621.384c-1.062 0-1.887-.384-2.535-1.157-.501-.651-.737-1.335-.737-2.105 0-.712.207-1.335.619-1.868.413-.564 1.032-1.069 1.857-1.485-.472-.563-.795-1.038-.943-1.425a2.258 2.258 0 0 1-.265-1.038c0-.652.265-1.244.737-1.75.501-.505 1.12-.742 1.857-.742.708 0 1.297.237 1.769.712.442.476.678 1.038.678 1.692 0 1.067-.678 1.958-2.005 2.729l1.887 2.551c.236-.445.383-.979.501-1.571l1.326.296c-.206.979-.53 1.781-.914 2.404a7.527 7.527 0 0 0 1.622 1.72l-.855 1.098c-.531-.357-1.061-.89-1.592-1.574zm-2.624-5.813c.56-.358.914-.656 1.091-.921.147-.267.236-.564.236-.891 0-.385-.119-.713-.324-.949a1.18 1.18 0 0 0-.855-.355c-.354 0-.649.119-.854.355a1.204 1.204 0 0 0-.354.89c0 .178.03.355.118.534.089.208.207.416.384.622l.558.715zm1.798 4.746l-2.328-3.146c-.678.445-1.15.859-1.385 1.246-.236.355-.383.742-.383 1.099 0 .474.177.919.501 1.423.353.476.825.713 1.444.713.383 0 .767-.118 1.179-.355a3.09 3.09 0 0 0 .972-.98zm16.184-1.544l1.386.387c-.295 1.217-.825 2.137-1.563 2.789-.766.623-1.68.948-2.742.948-1.12 0-2.033-.237-2.741-.742-.708-.474-1.238-1.186-1.591-2.134-.384-.92-.56-1.931-.56-2.997 0-1.157.206-2.168.619-3.057.413-.861 1.002-1.513 1.769-1.958a4.88 4.88 0 0 1 2.505-.684c1.062 0 1.917.297 2.624.861.708.563 1.209 1.365 1.503 2.404l-1.355.323c-.236-.8-.59-1.393-1.062-1.749-.442-.386-1.032-.564-1.71-.564-.825 0-1.473.209-2.003.624-.561.387-.915.948-1.15 1.662a7.334 7.334 0 0 0-.325 2.137c0 .948.147 1.778.383 2.492.265.711.678 1.245 1.208 1.602.531.357 1.121.505 1.769.505.767 0 1.416-.238 1.946-.713.53-.474.883-1.187 1.09-2.136zm2.653-1.513c0-1.84.472-3.293 1.386-4.362.942-1.038 2.122-1.572 3.596-1.572.973 0 1.827.237 2.593.742.796.506 1.356 1.186 1.769 2.077.413.86.619 1.869.619 2.997 0 1.127-.206 2.137-.648 3.025a4.535 4.535 0 0 1-1.798 2.05c-.797.442-1.621.68-2.535.68-.973 0-1.858-.237-2.625-.771-.766-.504-1.355-1.188-1.769-2.078a6.877 6.877 0 0 1-.588-2.788zm1.415.028c0 1.336.353 2.405 1.032 3.176.677.772 1.503 1.158 2.535 1.158 1.031 0 1.887-.386 2.535-1.158.677-.771 1.032-1.899 1.032-3.322 0-.92-.148-1.722-.442-2.404-.295-.683-.708-1.186-1.267-1.572a3.287 3.287 0 0 0-1.858-.564c-.973 0-1.8.355-2.506 1.099-.708.71-1.061 1.897-1.061 3.587zm10.287 5.431V38.696h1.415l5.483 8.813v-8.813h1.326v11.215h-1.414l-5.483-8.783v8.783h-1.327zm10.082-3.589l1.296-.148c.06.563.206 1.039.414 1.395.235.355.59.652 1.061.889.473.21 1.003.328 1.592.328.53 0 .973-.09 1.385-.268.415-.147.709-.387.885-.683a1.63 1.63 0 0 0 .294-.949c0-.355-.087-.684-.265-.921-.205-.267-.499-.504-.943-.683-.265-.087-.884-.297-1.855-.532-.943-.237-1.623-.475-2.005-.712a2.958 2.958 0 0 1-1.121-1.039 2.746 2.746 0 0 1-.354-1.396c0-.562.147-1.098.442-1.572.296-.502.737-.86 1.326-1.126.561-.269 1.209-.387 1.888-.387.765 0 1.473.149 2.063.416a3.082 3.082 0 0 1 1.356 1.156c.295.535.47 1.128.499 1.781l-1.325.118c-.059-.712-.295-1.245-.708-1.604-.412-.384-1.031-.562-1.826-.562-.826 0-1.444.178-1.829.503-.382.327-.559.714-.559 1.188 0 .415.147.743.413.979.264.27.943.534 2.062.803 1.121.296 1.887.533 2.3.711.621.327 1.063.683 1.356 1.157.265.445.413.979.413 1.572 0 .595-.148 1.157-.472 1.692a3.03 3.03 0 0 1-1.356 1.218c-.589.295-1.268.442-2.004.442-.943 0-1.739-.147-2.357-.442a3.319 3.319 0 0 1-1.504-1.337 3.786 3.786 0 0 1-.562-1.987zm16.95-7.626h1.386v6.468c0 1.129-.118 2.018-.354 2.7a3.186 3.186 0 0 1-1.268 1.604c-.618.415-1.444.621-2.446.621-.973 0-1.769-.178-2.387-.533-.621-.355-1.063-.889-1.327-1.572-.267-.683-.384-1.632-.384-2.819v-6.468h1.386v6.468c0 .979.09 1.69.236 2.167.176.443.472.8.885 1.067.383.237.883.355 1.473.355 1.003 0 1.74-.236 2.153-.742.441-.474.647-1.423.647-2.848v-6.468zm3.625 11.215V38.696h1.386v9.91h5.13v1.305h-6.516zm9.699 0V40.03h-3.42v-1.334h8.255v1.334h-3.45v9.881h-1.385zm6.484 0V38.696h1.387v11.215h-1.387zm3.775 0V38.696h1.415l5.482 8.813v-8.813h1.326v11.215h-1.415l-5.483-8.783v8.783h-1.325zm15.387-4.391v-1.334h4.421v4.153c-.677.593-1.386 1.039-2.094 1.308a5.906 5.906 0 0 1-2.211.442c-1.03 0-1.974-.237-2.801-.711-.823-.446-1.473-1.157-1.886-2.019-.441-.919-.648-1.898-.648-2.996 0-1.099.207-2.105.648-3.057.413-.949 1.033-1.632 1.828-2.105.795-.446 1.709-.684 2.742-.684.737 0 1.444.118 2.033.387.618.266 1.092.624 1.444 1.098.324.474.591 1.098.767 1.84l-1.238.355c-.147-.563-.354-1.009-.59-1.335-.206-.327-.561-.595-.972-.772-.442-.206-.915-.297-1.444-.297-.62 0-1.149.091-1.623.297-.47.208-.824.477-1.119.832a4.074 4.074 0 0 0-.648 1.099c-.265.681-.384 1.452-.384 2.255 0 1.007.147 1.839.473 2.52.323.655.767 1.158 1.385 1.485.62.326 1.268.505 1.946.505.588 0 1.179-.118 1.737-.387.561-.237 1.002-.505 1.298-.802V45.52h-3.064z"/></svg>